<svg id="visual" viewBox="0 0 1920 9999" width="1920" height="9999" xmlns="http://www.w3.org/2000/svg" xmlns:xlink="http://www.w3.org/1999/xlink" version="1.1"><rect x="0" y="0" width="1920" height="9999" fill="#242424"></rect><path d="M1572 9999L1509 9999L1509 9564L1572 9564L1572 9130L1525 9130L1525 8695L1516 8695L1516 8260L1544 8260L1544 7825L1535 7825L1535 7391L1557 7391L1557 6956L1476 6956L1476 6521L1519 6521L1519 6086L1451 6086L1451 5652L1565 5652L1565 5217L1544 5217L1544 4782L1473 4782L1473 4347L1442 4347L1442 3913L1560 3913L1560 3478L1485 3478L1485 3043L1438 3043L1438 2608L1569 2608L1569 2174L1483 2174L1483 1739L1437 1739L1437 1304L1545 1304L1545 869L1534 869L1534 435L1479 435L1479 0L1920 0L1920 435L1920 435L1920 869L1920 869L1920 1304L1920 1304L1920 1739L1920 1739L1920 2174L1920 2174L1920 2608L1920 2608L1920 3043L1920 3043L1920 3478L1920 3478L1920 3913L1920 3913L1920 4347L1920 4347L1920 4782L1920 4782L1920 5217L1920 5217L1920 5652L1920 5652L1920 6086L1920 6086L1920 6521L1920 6521L1920 6956L1920 6956L1920 7391L1920 7391L1920 7825L1920 7825L1920 8260L1920 8260L1920 8695L1920 8695L1920 9130L1920 9130L1920 9564L1920 9564L1920 9999L1920 9999Z" fill="#00c1ff"></path><path d="M1637 9999L1578 9999L1578 9564L1622 9564L1622 9130L1548 9130L1548 8695L1628 8695L1628 8260L1633 8260L1633 7825L1610 7825L1610 7391L1575 7391L1575 6956L1530 6956L1530 6521L1528 6521L1528 6086L1609 6086L1609 5652L1597 5652L1597 5217L1607 5217L1607 4782L1562 4782L1562 4347L1589 4347L1589 3913L1549 3913L1549 3478L1617 3478L1617 3043L1561 3043L1561 2608L1567 2608L1567 2174L1582 2174L1582 1739L1572 1739L1572 1304L1613 1304L1613 869L1600 869L1600 435L1625 435L1625 0L1920 0L1920 435L1920 435L1920 869L1920 869L1920 1304L1920 1304L1920 1739L1920 1739L1920 2174L1920 2174L1920 2608L1920 2608L1920 3043L1920 3043L1920 3478L1920 3478L1920 3913L1920 3913L1920 4347L1920 4347L1920 4782L1920 4782L1920 5217L1920 5217L1920 5652L1920 5652L1920 6086L1920 6086L1920 6521L1920 6521L1920 6956L1920 6956L1920 7391L1920 7391L1920 7825L1920 7825L1920 8260L1920 8260L1920 8695L1920 8695L1920 9130L1920 9130L1920 9564L1920 9564L1920 9999L1920 9999Z" fill="#00a9ff"></path><path d="M1692 9999L1702 9999L1702 9564L1712 9564L1712 9130L1606 9130L1606 8695L1655 8695L1655 8260L1696 8260L1696 7825L1611 7825L1611 7391L1710 7391L1710 6956L1665 6956L1665 6521L1636 6521L1636 6086L1615 6086L1615 5652L1708 5652L1708 5217L1653 5217L1653 4782L1642 4782L1642 4347L1717 4347L1717 3913L1659 3913L1659 3478L1720 3478L1720 3043L1696 3043L1696 2608L1608 2608L1608 2174L1721 2174L1721 1739L1717 1739L1717 1304L1615 1304L1615 869L1705 869L1705 435L1670 435L1670 0L1920 0L1920 435L1920 435L1920 869L1920 869L1920 1304L1920 1304L1920 1739L1920 1739L1920 2174L1920 2174L1920 2608L1920 2608L1920 3043L1920 3043L1920 3478L1920 3478L1920 3913L1920 3913L1920 4347L1920 4347L1920 4782L1920 4782L1920 5217L1920 5217L1920 5652L1920 5652L1920 6086L1920 6086L1920 6521L1920 6521L1920 6956L1920 6956L1920 7391L1920 7391L1920 7825L1920 7825L1920 8260L1920 8260L1920 8695L1920 8695L1920 9130L1920 9130L1920 9564L1920 9564L1920 9999L1920 9999Z" fill="#008eff"></path><path d="M1756 9999L1792 9999L1792 9564L1706 9564L1706 9130L1754 9130L1754 8695L1693 8695L1693 8260L1701 8260L1701 7825L1728 7825L1728 7391L1775 7391L1775 6956L1795 6956L1795 6521L1798 6521L1798 6086L1713 6086L1713 5652L1729 5652L1729 5217L1797 5217L1797 4782L1693 4782L1693 4347L1789 4347L1789 3913L1754 3913L1754 3478L1798 3478L1798 3043L1714 3043L1714 2608L1758 2608L1758 2174L1700 2174L1700 1739L1703 1739L1703 1304L1755 1304L1755 869L1769 869L1769 435L1757 435L1757 0L1920 0L1920 435L1920 435L1920 869L1920 869L1920 1304L1920 1304L1920 1739L1920 1739L1920 2174L1920 2174L1920 2608L1920 2608L1920 3043L1920 3043L1920 3478L1920 3478L1920 3913L1920 3913L1920 4347L1920 4347L1920 4782L1920 4782L1920 5217L1920 5217L1920 5652L1920 5652L1920 6086L1920 6086L1920 6521L1920 6521L1920 6956L1920 6956L1920 7391L1920 7391L1920 7825L1920 7825L1920 8260L1920 8260L1920 8695L1920 8695L1920 9130L1920 9130L1920 9564L1920 9564L1920 9999L1920 9999Z" fill="#296aff"></path><path d="M1826 9999L1798 9999L1798 9564L1821 9564L1821 9130L1822 9130L1822 8695L1824 8695L1824 8260L1796 8260L1796 7825L1811 7825L1811 7391L1817 7391L1817 6956L1796 6956L1796 6521L1828 6521L1828 6086L1810 6086L1810 5652L1830 5652L1830 5217L1847 5217L1847 4782L1837 4782L1837 4347L1842 4347L1842 3913L1825 3913L1825 3478L1847 3478L1847 3043L1815 3043L1815 2608L1822 2608L1822 2174L1819 2174L1819 1739L1869 1739L1869 1304L1782 1304L1782 869L1781 869L1781 435L1835 435L1835 0L1920 0L1920 435L1920 435L1920 869L1920 869L1920 1304L1920 1304L1920 1739L1920 1739L1920 2174L1920 2174L1920 2608L1920 2608L1920 3043L1920 3043L1920 3478L1920 3478L1920 3913L1920 3913L1920 4347L1920 4347L1920 4782L1920 4782L1920 5217L1920 5217L1920 5652L1920 5652L1920 6086L1920 6086L1920 6521L1920 6521L1920 6956L1920 6956L1920 7391L1920 7391L1920 7825L1920 7825L1920 8260L1920 8260L1920 8695L1920 8695L1920 9130L1920 9130L1920 9564L1920 9564L1920 9999L1920 9999Z" fill="#7a23ff"></path></svg>