<svg id="visual" viewBox="0 0 960 540" width="960" height="540" xmlns="http://www.w3.org/2000/svg" xmlns:xlink="http://www.w3.org/1999/xlink" version="1.1"><rect x="0" y="0" width="960" height="540" fill="#242424"></rect><path d="M726 540L714 540L714 432L739 432L739 324L716 324L716 216L702 216L702 108L711 108L711 0L960 0L960 108L960 108L960 216L960 216L960 324L960 324L960 432L960 432L960 540L960 540Z" fill="#3762ff"></path><path d="M768 540L768 540L768 432L732 432L732 324L729 324L729 216L780 216L780 108L745 108L745 0L960 0L960 108L960 108L960 216L960 216L960 324L960 324L960 432L960 432L960 540L960 540Z" fill="#4e5eff"></path><path d="M802 540L799 540L799 432L823 432L823 324L800 324L800 216L821 216L821 108L780 108L780 0L960 0L960 108L960 108L960 216L960 216L960 324L960 324L960 432L960 432L960 540L960 540Z" fill="#605aff"></path><path d="M844 540L859 540L859 432L814 432L814 324L851 324L851 216L826 216L826 108L857 108L857 0L960 0L960 108L960 108L960 216L960 216L960 324L960 324L960 432L960 432L960 540L960 540Z" fill="#7056ff"></path><path d="M904 540L880 540L880 432L863 432L863 324L870 324L870 216L870 216L870 108L885 108L885 0L960 0L960 108L960 108L960 216L960 216L960 324L960 324L960 432L960 432L960 540L960 540Z" fill="#7e51ff"></path><path d="M893 540L943 540L943 432L940 432L940 324L944 324L944 216L920 216L920 108L930 108L930 0L960 0L960 108L960 108L960 216L960 216L960 324L960 324L960 432L960 432L960 540L960 540Z" fill="#8c4bff"></path></svg>